# xmcd
#
# Track frame offsets:
#        150
#        17842
#        40195
#
# Disc length: 908 seconds
#
# Revision: 0
# Processed by: cddbd v1.5PL3 Copyright (c) Steve Scherf et al.
# Submitted via: ExactAudioCopy v0.95a4
#
DISCID=1b038a03
DTITLE=THE WILLAD - PRANK STER A GO GO
DYEAR=1900
DGENRE=Punk
TTITLE0=PRANK STER A GO GO("THE RODEO" Version)
TTITLE1=C'MON WHIPS("Reality Of Proul"Version)
TTITLE2=TOMORROW NEVER KNOWS
EXTD=
EXTT0=
EXTT1=
EXTT2=
PLAYORDER=
